<?xml version="1.0" encoding="UTF-8" standalone="no"?>
<svg width="400" height="400" viewBox="0 0 400 400" xmlns="http://www.w3.org/2000/svg" xmlns:xlink="http://www.w3.org/1999/xlink">
  <!-- Definitions for gradients and filters -->
  <defs>
    <!-- Background glow effect -->
    <filter id="glow" x="-50%" y="-50%" width="200%" height="200%">
      <feGaussianBlur stdDeviation="10" result="blur"/>
      <feComposite in="SourceGraphic" in2="blur" operator="over"/>
    </filter>
    
    <!-- Circuit gradient -->
    <linearGradient id="circuitGradient" x1="0%" y1="0%" x2="100%" y2="100%">
      <stop offset="0%" stop-color="#00ffff" />
      <stop offset="100%" stop-color="#ff00ff" />
    </linearGradient>
    
    <!-- Outer ring gradient -->
    <linearGradient id="outerRingGradient" x1="0%" y1="0%" x2="100%" y2="100%">
      <stop offset="0%" stop-color="#9966ff" />
      <stop offset="100%" stop-color="#ff66ff" />
    </linearGradient>
    
    <!-- Inner circle gradient -->
    <radialGradient id="innerCircleGradient" cx="50%" cy="50%" r="50%" fx="50%" fy="50%">
      <stop offset="0%" stop-color="#000022" />
      <stop offset="100%" stop-color="#220022" />
    </radialGradient>
    
    <!-- Glow spots -->
    <radialGradient id="glowSpot" cx="50%" cy="50%" r="50%" fx="25%" fy="25%">
      <stop offset="0%" stop-color="#ffffff" stop-opacity="1" />
      <stop offset="100%" stop-color="#00ffff" stop-opacity="0" />
    </radialGradient>
  </defs>
  
  <!-- Dark background -->
  <rect x="0" y="0" width="400" height="400" fill="#220022" />
  
  <!-- External circuit lines -->
  <g stroke="url(#circuitGradient)" stroke-width="2" fill="none">
    <!-- Top left lines -->
    <path d="M20,150 L120,150" />
    <path d="M30,140 L120,140" />
    <path d="M40,130 L120,130" />
    
    <!-- Bottom left lines -->
    <path d="M20,250 L80,250 L110,280 L140,280" />
    
    <!-- Top right lines -->
    <path d="M280,120 L330,120 L380,70" />
    <path d="M280,140 L330,140 L360,110" />
    <path d="M280,160 L330,160 L340,150" />
    
    <!-- Bottom right lines -->
    <path d="M280,260 L330,260 L370,300" />
    <path d="M280,280 L330,280 L350,300" />
  </g>
  
  <!-- Outer glow ring -->
  <circle cx="200" cy="200" r="135" stroke="url(#outerRingGradient)" stroke-width="4" fill="none" filter="url(#glow)" />
  
  <!-- Inner black circle -->
  <circle cx="200" cy="200" r="120" fill="url(#innerCircleGradient)" stroke="#333" stroke-width="2" />
  
  <!-- Circuit paths inside the circle -->
  <g stroke="url(#circuitGradient)" stroke-width="5" fill="none" stroke-linecap="round">
    <!-- Left side vertical lines -->
    <path d="M140,150 L140,250" />
    <path d="M160,130 L160,270" />
    <path d="M180,110 L180,290" />
    
    <!-- Right side connections -->
    <path d="M140,150 L240,150" />
    <path d="M140,200 L260,200" />
    <path d="M140,250 L220,250" />
    
    <!-- Top circuit branch -->
    <path d="M240,150 L260,130 L280,130" />
    <circle cx="280" cy="130" r="6" fill="#00ffff" />
    
    <!-- Middle circuit branches -->
    <path d="M260,200 L280,200" />
    <circle cx="280" cy="200" r="6" fill="#cc66ff" />
    
    <!-- Bottom branches -->
    <path d="M220,250 L240,270 L280,270" />
    <circle cx="280" cy="270" r="6" fill="#ff66ff" />
    
    <!-- Small dots -->
    <circle cx="200" cy="230" r="4" fill="#9966ff" />
    <circle cx="260" cy="170" r="3" fill="#00ffff" />
    <circle cx="170" cy="160" r="3" fill="#00ffff" />
  </g>
  
  <!-- Glow highlights -->
  <circle cx="125" cy="125" r="5" fill="#00ffff" opacity="0.8" filter="url(#glow)" />
  <circle cx="320" cy="220" r="5" fill="#ff66ff" opacity="0.8" filter="url(#glow)" />
  <circle cx="275" cy="90" r="4" fill="#00ffff" opacity="0.6" filter="url(#glow)" />
  <circle cx="85" cy="270" r="3" fill="#00ffff" opacity="0.7" filter="url(#glow)" />
  
  <!-- Top-right bright spot -->
  <circle cx="320" cy="70" r="15" fill="url(#glowSpot)" opacity="0.5" />
  
  <!-- Bottom-left bright spot -->
  <circle cx="70" cy="320" r="12" fill="url(#glowSpot)" opacity="0.4" />
</svg>