<?xml version="1.0" encoding="UTF-8" standalone="no"?>
<svg width="200" height="200" viewBox="0 0 200 200" xmlns="http://www.w3.org/2000/svg">
  <path d="M45,80 L45,135 C45,143.3 51.7,150 60,150 L70,150 L70,174 C70,181.2 75.8,187 83,187 C90.2,187 96,181.2 96,174 L96,150 L104,150 L104,174 C104,181.2 109.8,187 117,187 C124.2,187 130,181.2 130,174 L130,150 L140,150 C148.3,150 155,143.3 155,135 L155,80 L45,80 Z" fill="#A4C639"/>
  <path d="M30,80 C22.8,80 17,85.8 17,93 L17,122 C17,129.2 22.8,135 30,135 C37.2,135 43,129.2 43,122 L43,93 C43,85.8 37.2,80 30,80 Z" fill="#A4C639"/>
  <path d="M170,80 C162.8,80 157,85.8 157,93 L157,122 C157,129.2 162.8,135 170,135 C177.2,135 183,129.2 183,122 L183,93 C183,85.8 177.2,80 170,80 Z" fill="#A4C639"/>
  <path d="M83,30 L91.5,15 C92.2,13.8 91.9,12.2 90.7,11.5 C89.5,10.8 87.9,11.1 87.2,12.3 L78.3,28 C71.6,25.4 64.3,24 56.5,24 C48.7,24 41.4,25.4 34.7,28 L25.8,12.3 C25.1,11.1 23.5,10.8 22.3,11.5 C21.1,12.2 20.8,13.8 21.5,15 L30,30 C16.5,38.2 7.5,52.2 7,68 L153,68 C152.5,52.2 143.5,38.2 130,30 L138.5,15 C139.2,13.8 138.9,12.2 137.7,11.5 C136.5,10.8 134.9,11.1 134.2,12.3 L125.3,28 C118.6,25.4 111.3,24 103.5,24 C95.7,24 88.4,25.4 81.7,28 L72.8,12.3 C72.1,11.1 70.5,10.8 69.3,11.5 C68.1,12.2 67.8,13.8 68.5,15 L77,30 Z" fill="#A4C639"/>
  <circle cx="63" cy="49" r="6" fill="white"/>
  <circle cx="137" cy="49" r="6" fill="white"/>
</svg>