<?xml version="1.0" encoding="UTF-8" standalone="no"?>
<svg width="200" height="200" viewBox="0 0 200 200" xmlns="http://www.w3.org/2000/svg">
  <path d="M145.8,171.6c-7.6,3.1-15.3,2-21-1.5c-2.9-1.8-5.3-4.1-9.3-4.1c-3.7,0-7.6,1.3-14,3.8c-12.9,4.9-15.7,4.1-20.1,1.4
  c-7.1-4.3-8.1-13.3-6-20.3c2.6-8.8,8.4-13.7,13.6-13.7c6,0,9.7,5.3,15.2,5.3c5.5,0,8.3-5.3,15.6-5.3c4.5,0,10.8,3.6,14.3,10.9
  C138.3,156.1,139.5,165.8,145.8,171.6z" fill="#444444"/>
  <ellipse cx="100" cy="88.1" rx="45.3" ry="49.5" fill="#444444"/>
  <path d="M72.2,25c0,0-28.4,14.9-25.4,39.9c3,25,17.3,32.7,17.3,32.7s3-18.5,8.9-28.6C79,58.9,82,42.1,72.2,25z" fill="#444444"/>
  <path d="M127.8,25c0,0,28.4,14.9,25.4,39.9c-3,25-17.3,32.7-17.3,32.7s-3-18.5-8.9-28.6C121,58.9,118,42.1,127.8,25z" fill="#444444"/>
  <ellipse cx="84" cy="84.2" rx="7.8" ry="11.9" fill="white"/>
  <ellipse cx="116" cy="84.2" rx="7.8" ry="11.9" fill="white"/>
  <circle cx="84" cy="80.2" r="3.3" fill="black"/>
  <circle cx="116" cy="80.2" r="3.3" fill="black"/>
</svg>