<?xml version="1.0" encoding="UTF-8" standalone="no"?>
<svg width="200" height="200" viewBox="0 0 200 200" xmlns="http://www.w3.org/2000/svg">
  <path d="M156.7,100c-0.1-13.2,5.4-25.7,15-34.9c-5.9-8.2-14.3-14.2-23.9-17c-9.7-2.8-25.1-4.9-36.2,2.9
  c-7.8,5.6-19.5,5.6-27.3,0c-8.1-5.8-17.8-7.3-27.5-4.2c-9.7,3.1-17.9,9.8-23.4,19c-17.6,28.5-4.6,70.5,12.7,93.4
  c8.3,11.9,19.6,25.3,33.5,24.8c13.4-0.5,18.5-8.6,34.7-8.6c16.2,0,20.8,8.6,35,8.4c14.5-0.3,23.7-13.1,32.6-24.8
  c5.9-7.7,10.5-16.3,13.6-25.6C173.4,127.2,156.8,115.7,156.7,100z" fill="#888888"/>
  <path d="M131.5,30c-8.9,10.7-8.4,31.1,0.9,41.3c9.3,10.2,25.5,11.3,33.1,4.7C159.7,62.7,149.8,37.9,131.5,30z" fill="#888888"/>
</svg>